<?xml version="1.0" standalone="no"?>
<!DOCTYPE svg PUBLIC "-//W3C//DTD SVG 20010904//EN"
 "http://www.w3.org/TR/2001/REC-SVG-20010904/DTD/svg10.dtd">
<svg version="1.0" xmlns="http://www.w3.org/2000/svg"
 width="721.000000pt" height="721.000000pt" viewBox="0 0 721.000000 721.000000"
 preserveAspectRatio="xMidYMid meet">
<metadata>
Created by potrace 1.11, written by Peter Selinger 2001-2013
</metadata>
<g transform="translate(0.000000,721.000000) scale(0.100000,-0.100000)"
fill="#000000" stroke="none">
<path d="M3557 6855 c-1 -2 -63 -6 -137 -9 -139 -8 -160 -10 -232 -21 -24 -4
-56 -9 -73 -11 -511 -79 -1033 -313 -1452 -650 l-33 -26 -52 22 c-140 61 -305
2 -376 -134 -36 -69 -38 -188 -5 -255 12 -24 19 -49 15 -55 -4 -7 -32 -45 -63
-87 -202 -269 -393 -644 -474 -929 -49 -170 -83 -327 -109 -500 -15 -97 -21
-216 -21 -425 1 -205 5 -289 20 -390 3 -16 7 -47 10 -68 12 -88 18 -119 47
-247 30 -136 113 -401 162 -518 235 -562 615 -1054 1086 -1403 90 -66 275
-189 286 -189 3 0 18 -9 33 -19 39 -28 273 -144 371 -184 133 -54 341 -126
415 -143 6 -1 57 -14 115 -28 58 -13 134 -30 170 -36 36 -6 74 -13 85 -15 11
-2 23 -4 26 -4 4 -1 9 -19 13 -42 15 -95 98 -198 194 -242 72 -33 198 -31 272
4 149 71 224 227 184 382 -78 303 -488 342 -625 60 -24 -49 -24 -49 -140 -27
-462 86 -914 277 -1284 542 -702 503 -1186 1307 -1301 2158 -3 27 -8 58 -10
69 -22 117 -22 525 1 715 26 218 113 559 184 725 5 11 21 49 36 85 93 219 256
494 388 654 l24 30 39 -19 c56 -27 174 -27 234 1 142 66 212 241 151 379 -21
48 -21 48 -2 62 11 7 26 19 33 26 28 28 206 152 302 211 84 51 323 174 401
206 89 36 134 52 230 83 102 33 212 64 260 73 11 2 43 8 70 14 72 15 84 17
145 25 30 4 64 9 75 11 45 9 219 18 350 18 238 0 392 -19 655 -78 93 -22 291
-87 400 -134 265 -111 539 -285 744 -469 37 -34 38 -36 27 -73 -29 -96 -4
-202 65 -279 64 -72 119 -95 224 -96 l85 0 57 -85 c59 -89 70 -107 149 -255
59 -111 137 -301 178 -433 33 -106 85 -333 96 -417 3 -27 8 -63 10 -80 27
-177 18 -517 -20 -730 -140 -796 -651 -1468 -1383 -1816 -145 -69 -371 -150
-484 -173 -13 -3 -34 -7 -48 -11 -74 -16 -195 -35 -268 -43 l-82 -8 -11 37
c-18 58 -78 129 -139 163 -50 28 -63 31 -140 31 -68 0 -93 -5 -126 -22 -53
-29 -116 -93 -138 -141 l-18 -40 -86 19 c-284 62 -585 191 -797 341 -22 16
-51 36 -65 46 -208 147 -468 435 -600 663 -58 100 -158 313 -190 404 -37 105
-86 292 -96 362 -3 26 -8 51 -10 54 -18 30 -26 429 -11 569 29 279 144 609
297 855 79 127 78 126 151 129 148 6 242 107 243 262 l1 71 60 48 c219 179
564 349 813 400 9 2 37 8 62 14 25 5 68 13 95 17 28 3 59 8 70 11 58 13 358
12 465 -3 370 -49 735 -209 975 -427 l59 -54 1 -84 c0 -73 4 -91 27 -130 46
-78 133 -129 222 -129 41 0 43 -1 81 -67 89 -152 151 -300 194 -465 33 -123
36 -137 46 -224 4 -33 9 -68 11 -79 6 -29 5 -272 -1 -320 -12 -102 -17 -136
-37 -220 -145 -630 -641 -1112 -1276 -1244 -55 -12 -116 -21 -135 -21 -34 0
-34 0 -40 54 -16 162 -193 263 -344 196 -90 -40 -140 -109 -152 -212 -2 -19
-244 70 -351 129 -176 98 -349 243 -446 375 -14 18 -34 45 -47 61 -87 113
-191 347 -234 526 -31 133 -40 392 -17 511 8 41 16 86 19 100 8 45 55 174 91
251 l36 76 41 -9 c91 -20 199 38 233 127 20 52 15 139 -10 177 -15 23 -14 25
42 69 175 142 350 222 597 275 65 14 310 13 385 -2 224 -43 414 -134 568 -272
44 -39 44 -39 28 -70 -77 -148 40 -323 206 -308 l38 4 29 -92 c87 -271 72
-522 -44 -761 -90 -186 -228 -326 -420 -427 -84 -44 -307 -106 -292 -81 10 16
-29 88 -64 117 -48 41 -87 55 -144 52 -68 -4 -121 -31 -158 -82 -18 -24 -38
-43 -46 -44 -21 0 -131 60 -181 99 -204 160 -308 368 -308 615 1 127 23 213
81 319 42 76 55 93 124 160 l52 50 -31 44 c-17 23 -35 43 -40 43 -16 0 -135
-126 -175 -186 -216 -319 -156 -776 140 -1061 76 -73 190 -150 276 -183 55
-22 66 -31 86 -70 28 -55 47 -73 105 -99 86 -39 160 -21 239 56 29 29 56 51
60 48 4 -2 51 7 103 20 628 155 962 804 738 1436 l-31 87 22 41 c53 103 21
221 -78 283 -31 18 -52 23 -109 23 -71 0 -71 0 -125 48 -393 352 -936 421
-1430 183 -41 -20 -83 -42 -94 -49 -78 -49 -143 -94 -195 -137 -58 -49 -61
-51 -109 -44 -127 17 -233 -76 -234 -204 0 -34 6 -70 16 -89 17 -32 17 -33
-22 -110 -96 -191 -144 -398 -144 -623 -1 -263 53 -482 176 -721 100 -195 238
-360 437 -523 131 -107 404 -237 583 -276 46 -11 61 -19 75 -42 9 -16 37 -43
61 -59 105 -69 213 -61 316 23 21 18 46 33 54 35 9 1 41 4 71 7 67 7 90 11
205 38 379 87 742 321 981 630 141 183 258 419 314 638 12 46 15 60 26 120 4
19 8 44 10 55 12 64 18 156 18 280 1 155 -7 240 -30 354 -9 42 -18 84 -20 95
-26 133 -125 378 -217 534 l-35 60 24 23 c74 70 94 211 41 301 -71 122 -207
162 -333 98 -47 -23 -61 -27 -74 -17 -8 6 -40 33 -70 58 -239 202 -622 375
-916 415 -27 3 -52 8 -55 10 -11 6 -209 18 -304 17 -451 -1 -907 -161 -1287
-451 -90 -68 -99 -73 -114 -58 -30 31 -79 49 -144 54 -75 5 -139 -19 -192 -72
-88 -87 -93 -239 -13 -335 l26 -31 -64 -102 c-229 -365 -339 -741 -340 -1163
0 -147 3 -209 19 -335 7 -62 50 -259 64 -295 6 -16 11 -32 11 -35 -5 -31 97
-290 167 -425 143 -278 362 -553 582 -733 25 -20 54 -45 65 -56 27 -25 257
-175 327 -214 145 -80 373 -170 539 -211 83 -21 97 -24 166 -37 27 -5 33 -12
42 -48 15 -60 68 -135 120 -168 82 -51 158 -62 254 -34 70 20 157 100 177 161
7 22 15 43 19 47 3 3 33 9 66 12 289 31 508 87 770 198 610 260 1093 734 1360
1337 111 250 189 556 212 826 13 161 6 523 -12 577 -2 7 -6 36 -9 63 -6 52
-13 91 -40 213 -14 66 -26 109 -58 212 -13 44 -76 218 -88 245 -5 11 -27 59
-49 107 -49 109 -126 246 -201 360 l-58 86 30 36 c80 97 93 228 33 331 -86
148 -275 194 -416 101 l-35 -24 -92 77 c-320 270 -692 462 -1102 570 -136 35
-233 55 -330 66 -25 3 -61 7 -80 10 -19 3 -87 7 -150 11 -63 3 -132 7 -153 8
-20 1 -38 2 -40 1z"/>
<path d="M3607 4594 c-1 -1 -31 -5 -67 -8 -62 -7 -206 -49 -223 -65 -8 -8 27
-86 43 -96 5 -3 26 1 47 9 76 30 135 40 256 46 4 0 7 25 5 57 -3 54 -4 56 -31
58 -15 0 -29 0 -30 -1z"/>
<path d="M3791 4548 c-5 -13 -11 -37 -15 -54 -7 -30 -5 -32 41 -49 58 -22 136
-71 182 -114 l34 -32 41 41 41 41 -44 41 c-55 51 -129 98 -200 126 -67 27 -70
27 -80 0z"/>
<path d="M4138 4244 c-53 -27 -54 -30 -33 -70 20 -39 36 -120 38 -196 l2 -63
49 -8 c27 -4 51 -6 54 -3 2 3 6 37 8 76 3 75 -21 192 -53 253 l-18 35 -47 -24z"/>
<path d="M3709 4128 c0 -7 -2 -20 -4 -28 -17 -75 -17 -78 2 -84 11 -4 26 -18
33 -31 11 -21 11 -29 0 -51 -12 -22 -20 -25 -52 -22 -33 3 -38 1 -38 -18 0
-12 9 -32 19 -45 15 -19 29 -24 68 -24 79 0 126 49 125 133 -1 74 -36 128
-104 163 -44 22 -48 23 -49 7z"/>
<path d="M3519 4102 c-46 -30 -99 -91 -99 -114 0 -8 -5 -19 -11 -25 -7 -7 -12
-47 -13 -95 l-1 -83 33 2 c73 3 78 7 80 68 1 64 30 123 72 148 l28 17 -18 51
c-11 28 -21 53 -23 55 -2 2 -23 -9 -48 -24z"/>
<path d="M4091 3791 c-18 -41 -105 -127 -151 -147 -22 -10 -40 -21 -40 -24 0
-18 33 -100 40 -100 30 0 144 74 186 121 24 27 84 119 84 130 0 6 -91 49 -103
49 -3 0 -10 -13 -16 -29z"/>
<path d="M3503 3684 c-24 -14 -43 -30 -43 -36 0 -21 87 -92 148 -121 44 -21
85 -31 132 -35 l69 -5 -5 54 c-2 29 -6 55 -9 57 -3 3 -23 6 -44 8 -54 4 -133
39 -167 75 -15 16 -30 29 -33 29 -3 0 -25 -12 -48 -26z"/>
<path d="M6369 1732 c-17 -20 -68 -74 -113 -120 l-81 -82 41 -40 40 -41 55 54
c29 30 82 84 116 119 69 72 69 66 0 125 l-25 21 -33 -36z"/>
<path d="M6049 1420 c-19 -17 -76 -62 -126 -101 -51 -39 -93 -73 -93 -75 0 -3
14 -25 31 -49 l32 -44 36 27 c41 30 124 95 131 102 3 3 26 22 53 43 26 21 47
44 47 51 0 12 -60 76 -72 76 -3 0 -21 -14 -39 -30z"/>
<path d="M5665 1139 c-33 -22 -97 -60 -142 -86 l-83 -46 27 -46 c14 -25 27
-48 29 -49 2 -3 135 68 192 103 60 36 102 66 102 72 0 9 -54 93 -60 92 -3 0
-32 -18 -65 -40z"/>
<path d="M5295 936 c-22 -13 -87 -42 -145 -65 -58 -24 -108 -46 -113 -50 -12
-12 34 -113 47 -103 6 5 34 17 61 27 28 9 83 33 123 51 41 19 77 34 80 34 4 0
15 7 25 14 17 14 17 16 -8 65 -14 28 -26 51 -28 50 -1 -1 -20 -11 -42 -23z"/>
<path d="M4870 769 c-14 -6 -65 -22 -115 -35 -113 -32 -116 -32 -139 -33 -16
-1 -17 -6 -11 -47 9 -63 14 -73 33 -69 41 8 183 47 248 67 l71 23 -15 53 c-15
55 -24 60 -72 41z"/>
<path d="M4426 660 c-15 -5 -49 -11 -75 -14 -25 -3 -68 -8 -96 -11 -106 -12
-107 -12 -104 -58 4 -69 4 -69 76 -62 35 3 72 8 81 10 9 1 42 6 72 10 30 3 71
11 91 16 l36 9 -10 55 c-11 59 -15 61 -71 45z"/>
</g>
</svg>
